<?xml version="1.0" encoding="UTF-8" standalone="no"?>
<!DOCTYPE svg PUBLIC "-//W3C//DTD SVG 1.1//EN" "http://www.w3.org/Graphics/SVG/1.1/DTD/svg11.dtd">
<svg width="100%" height="100%" viewBox="0 0 2049 433" version="1.1" xmlns="http://www.w3.org/2000/svg" xmlns:xlink="http://www.w3.org/1999/xlink" xml:space="preserve" xmlns:serif="http://www.serif.com/" style="fill-rule:evenodd;clip-rule:evenodd;stroke-linejoin:round;stroke-miterlimit:2;">
    <g transform="matrix(1,0,0,1,-33,-1522.65)">
        <g id="Artboard1" transform="matrix(0.957917,0,0,1,-2661.08,1031.32)">
            <rect x="2812.43" y="491.328" width="2138.65" height="432.695" style="fill:none;"/>
            <g transform="matrix(2.8428,0,0,2.72317,-4620.91,-1144.54)">
                <g transform="matrix(201.51,0,0,201.51,2598,755)">
                    <path d="M0.233,-0.72C0.236,-0.735 0.245,-0.743 0.26,-0.743L0.568,-0.743C0.606,-0.743 0.64,-0.735 0.67,-0.719C0.699,-0.703 0.722,-0.681 0.739,-0.653C0.755,-0.626 0.763,-0.595 0.763,-0.563C0.763,-0.551 0.762,-0.539 0.76,-0.527C0.756,-0.503 0.747,-0.48 0.735,-0.459C0.722,-0.437 0.706,-0.417 0.688,-0.399C0.701,-0.386 0.711,-0.366 0.72,-0.341C0.728,-0.316 0.732,-0.29 0.732,-0.263C0.732,-0.249 0.731,-0.236 0.729,-0.224C0.719,-0.181 0.702,-0.142 0.677,-0.108C0.652,-0.074 0.621,-0.048 0.586,-0.029C0.55,-0.01 0.513,-0 0.473,-0L0.102,-0C0.09,-0 0.083,-0.005 0.083,-0.015C0.083,-0.016 0.084,-0.018 0.084,-0.022L0.233,-0.72ZM0.369,-0.45L0.48,-0.45C0.503,-0.45 0.523,-0.457 0.54,-0.47C0.557,-0.484 0.568,-0.501 0.573,-0.522C0.574,-0.528 0.574,-0.533 0.574,-0.538C0.574,-0.554 0.569,-0.568 0.558,-0.579C0.546,-0.589 0.531,-0.595 0.513,-0.595L0.399,-0.595L0.369,-0.45ZM0.305,-0.148L0.444,-0.148C0.457,-0.148 0.471,-0.152 0.484,-0.16C0.497,-0.168 0.509,-0.178 0.519,-0.191C0.529,-0.203 0.535,-0.217 0.539,-0.232C0.54,-0.237 0.54,-0.242 0.54,-0.248C0.54,-0.266 0.535,-0.282 0.523,-0.295C0.512,-0.309 0.498,-0.316 0.479,-0.316L0.34,-0.316L0.305,-0.148Z" style="fill:white;fill-rule:nonzero;"/>
                </g>
                <g transform="matrix(201.51,0,0,201.51,2740.11,755)">
                    <path d="M0.441,-0.72C0.449,-0.735 0.461,-0.743 0.477,-0.743L0.599,-0.743C0.613,-0.743 0.622,-0.735 0.624,-0.72L0.748,-0.022C0.749,-0.02 0.749,-0.019 0.749,-0.016C0.749,-0.005 0.743,-0 0.73,-0L0.586,-0C0.572,-0 0.563,-0.007 0.561,-0.022L0.547,-0.12L0.274,-0.12L0.219,-0.022C0.212,-0.007 0.2,-0 0.185,-0L0.031,-0C0.021,-0 0.016,-0.003 0.016,-0.009C0.016,-0.012 0.018,-0.017 0.021,-0.022L0.441,-0.72ZM0.524,-0.281L0.492,-0.508L0.365,-0.281L0.524,-0.281Z" style="fill:white;fill-rule:nonzero;"/>
                </g>
                <g transform="matrix(201.51,0,0,201.51,2894.28,755)">
                    <path d="M0.224,-0.72C0.228,-0.735 0.237,-0.743 0.252,-0.743L0.493,-0.743C0.549,-0.743 0.602,-0.729 0.649,-0.702C0.697,-0.675 0.736,-0.637 0.764,-0.589C0.792,-0.54 0.806,-0.486 0.806,-0.426C0.806,-0.409 0.805,-0.391 0.802,-0.371C0.791,-0.298 0.764,-0.234 0.72,-0.177C0.676,-0.121 0.622,-0.077 0.558,-0.046C0.494,-0.015 0.427,-0 0.358,-0L0.094,-0C0.081,-0 0.075,-0.005 0.075,-0.015C0.075,-0.016 0.075,-0.018 0.076,-0.022L0.224,-0.72ZM0.608,-0.371C0.611,-0.386 0.613,-0.399 0.613,-0.412C0.613,-0.441 0.606,-0.467 0.593,-0.491C0.58,-0.514 0.562,-0.533 0.538,-0.546C0.514,-0.559 0.486,-0.566 0.455,-0.566L0.385,-0.566L0.303,-0.177L0.372,-0.177C0.409,-0.177 0.444,-0.186 0.477,-0.203C0.51,-0.22 0.539,-0.244 0.562,-0.274C0.585,-0.303 0.601,-0.336 0.608,-0.371Z" style="fill:white;fill-rule:nonzero;"/>
                </g>
                <g transform="matrix(201.51,0,0,201.51,3050.03,755)">
                    <path d="M0.224,-0.72C0.228,-0.735 0.237,-0.743 0.252,-0.743L0.493,-0.743C0.549,-0.743 0.602,-0.729 0.649,-0.702C0.697,-0.675 0.736,-0.637 0.764,-0.589C0.792,-0.54 0.806,-0.486 0.806,-0.426C0.806,-0.409 0.805,-0.391 0.802,-0.371C0.791,-0.298 0.764,-0.234 0.72,-0.177C0.676,-0.121 0.622,-0.077 0.558,-0.046C0.494,-0.015 0.427,-0 0.358,-0L0.094,-0C0.081,-0 0.075,-0.005 0.075,-0.015C0.075,-0.016 0.075,-0.018 0.076,-0.022L0.224,-0.72ZM0.608,-0.371C0.611,-0.386 0.613,-0.399 0.613,-0.412C0.613,-0.441 0.606,-0.467 0.593,-0.491C0.58,-0.514 0.562,-0.533 0.538,-0.546C0.514,-0.559 0.486,-0.566 0.455,-0.566L0.385,-0.566L0.303,-0.177L0.372,-0.177C0.409,-0.177 0.444,-0.186 0.477,-0.203C0.51,-0.22 0.539,-0.244 0.562,-0.274C0.585,-0.303 0.601,-0.336 0.608,-0.371Z" style="fill:white;fill-rule:nonzero;"/>
                </g>
                <g transform="matrix(201.51,0,0,201.51,3197.28,755)">
                    <path d="M0.17,-0.72C0.17,-0.722 0.169,-0.724 0.169,-0.727C0.169,-0.732 0.171,-0.736 0.175,-0.739C0.178,-0.741 0.183,-0.743 0.19,-0.743L0.343,-0.743C0.35,-0.743 0.355,-0.741 0.358,-0.738C0.362,-0.734 0.365,-0.728 0.367,-0.72L0.441,-0.479L0.612,-0.72C0.618,-0.728 0.623,-0.734 0.628,-0.738C0.634,-0.741 0.64,-0.743 0.647,-0.743L0.828,-0.743C0.838,-0.743 0.843,-0.74 0.843,-0.733C0.843,-0.73 0.841,-0.725 0.837,-0.72L0.511,-0.304L0.451,-0.022C0.448,-0.007 0.439,-0 0.425,-0L0.276,-0C0.263,-0 0.257,-0.005 0.257,-0.015C0.257,-0.016 0.257,-0.018 0.258,-0.022L0.318,-0.303L0.17,-0.72Z" style="fill:white;fill-rule:nonzero;"/>
                </g>
            </g>
        </g>
    </g>
</svg>
