<?xml version="1.0" encoding="UTF-8" standalone="no"?>
<!DOCTYPE svg PUBLIC "-//W3C//DTD SVG 1.1//EN" "http://www.w3.org/Graphics/SVG/1.1/DTD/svg11.dtd">
<svg width="100%" height="100%" viewBox="0 0 1260 1260" version="1.1" xmlns="http://www.w3.org/2000/svg" xmlns:xlink="http://www.w3.org/1999/xlink" xml:space="preserve" xmlns:serif="http://www.serif.com/" style="fill-rule:evenodd;clip-rule:evenodd;stroke-linejoin:round;stroke-miterlimit:2;">
    <g transform="matrix(1,0,0,1,-3006,-1987.51)">
        <g id="Artboard3" transform="matrix(1,0,0,1,-76,1419)">
            <rect x="3082" y="568.514" width="1259.83" height="1259.83" style="fill:none;"/>
            <g id="file-image-box" transform="matrix(25.3888,0,0,25.3888,3407.27,893.813)">
                <path d="M8.499,13.498L10.999,16.504L14.499,11.998L18.999,17.998L4.999,17.998M20.999,18.998L20.999,4.998C20.999,3.893 20.103,2.998 18.999,2.998L4.999,2.998C3.895,2.998 2.999,3.893 2.999,4.998L2.999,18.998C2.999,20.103 3.895,20.998 4.999,20.998L18.999,20.998C20.103,20.998 20.999,20.103 20.999,18.998Z" style="fill:rgb(190,190,190);fill-opacity:0.79;fill-rule:nonzero;"/>
            </g>
        </g>
    </g>
</svg>
