<?xml version="1.0" encoding="UTF-8" standalone="no"?>
<!DOCTYPE svg PUBLIC "-//W3C//DTD SVG 1.1//EN" "http://www.w3.org/Graphics/SVG/1.1/DTD/svg11.dtd">
<svg width="100%" height="100%" viewBox="0 0 1260 1260" version="1.1" xmlns="http://www.w3.org/2000/svg" xmlns:xlink="http://www.w3.org/1999/xlink" xml:space="preserve" xmlns:serif="http://www.serif.com/" style="fill-rule:evenodd;clip-rule:evenodd;stroke-linejoin:round;stroke-miterlimit:2;">
    <g transform="matrix(1,0,0,1,-3006,-568.514)">
        <g id="Artboard3" transform="matrix(1,0,0,1,-76,0)">
            <rect x="3082" y="568.514" width="1259.83" height="1259.83" style="fill:none;"/>
            <g id="database" transform="matrix(40.5805,0,0,38.2159,3306.11,823.915)">
                <path d="M16.726,12.641C15.883,14.004 13.191,15.002 10,15.002C6.809,15.002 4.117,14.004 3.273,12.641C3.095,12.351 3,12.506 3,12.648L3,14.65C3,16.59 6.134,18.6 10,18.6C13.866,18.6 17,16.59 17,14.651L17,12.649C17,12.505 16.904,12.351 16.726,12.641ZM16.737,7.525C15.907,8.73 13.205,9.615 10,9.615C6.795,9.615 4.092,8.73 3.262,7.525C3.091,7.277 3,7.412 3,7.523L3,9.88C3,11.642 6.134,13.069 10,13.069C13.866,13.069 17,11.641 17,9.88L17,7.523C17,7.412 16.908,7.277 16.737,7.525ZM10,1C6.134,1 3,2.18 3,3.633L3,4.893C3,6.434 6.134,7.684 10,7.684C13.866,7.684 17,6.434 17,4.893L17,3.633C17,2.18 13.866,1 10,1Z" style="fill:rgb(225,29,72);fill-rule:nonzero;"/>
            </g>
        </g>
    </g>
</svg>
