<?xml version="1.0" encoding="UTF-8" standalone="no"?>
<!DOCTYPE svg PUBLIC "-//W3C//DTD SVG 1.1//EN" "http://www.w3.org/Graphics/SVG/1.1/DTD/svg11.dtd">
<svg width="100%" height="100%" viewBox="0 0 1260 1260" version="1.1" xmlns="http://www.w3.org/2000/svg" xmlns:xlink="http://www.w3.org/1999/xlink" xml:space="preserve" xmlns:serif="http://www.serif.com/" style="fill-rule:evenodd;clip-rule:evenodd;stroke-linejoin:round;stroke-miterlimit:2;">
    <g transform="matrix(1,0,0,1,-4506,-568.514)">
        <g id="Artboard3" transform="matrix(1,0,0,1,1424,0)">
            <rect x="3082" y="568.514" width="1259.83" height="1259.83" style="fill:none;"/>
            <g transform="matrix(2.56703,0,0,1.78079,3198.51,827.489)">
                <g transform="matrix(1.07105,0,0,1.67104,-24.9215,-181.051)">
                    <ellipse cx="210" cy="233" rx="175" ry="107" style="fill:rgb(225,29,72);"/>
                    <path d="M210,126C306.585,126 385,173.945 385,233C385,292.055 306.585,340 210,340C113.415,340 35,292.055 35,233C35,173.945 113.415,126 210,126ZM210,141.099C156.608,141.099 109.082,156.559 79.733,181.033C62.189,195.663 51.342,213.486 51.342,233C51.342,252.514 62.189,270.337 79.733,284.967C109.082,309.441 156.608,324.901 210,324.901C263.392,324.901 310.918,309.441 340.267,284.967C357.811,270.337 368.658,252.514 368.658,233C368.658,213.486 357.811,195.663 340.267,181.033C310.918,156.559 263.392,141.099 210,141.099Z" style="fill:rgb(145,29,54);"/>
                </g>
                <g transform="matrix(0.600845,0,0,0.866123,52.7656,25.2193)">
                    <g transform="matrix(156.357,0,0,156.357,412.397,267)">
                    </g>
                    <text x="78px" y="267px" style="font-family:'ComicSansMS-Bold', 'Comic Sans MS', cursive;font-weight:700;font-size:156.357px;fill:white;stroke:rgb(26,31,0);stroke-width:1.37px;">SDX</text>
                </g>
            </g>
            <g id="heart" transform="matrix(9.43326,0,0,9.43326,3617.59,881.233)">
                <path d="M17.19,4.155C15.518,2.621 12.807,2.621 11.135,4.155L10,5.197L8.864,4.155C7.192,2.621 4.482,2.621 2.81,4.155C0.929,5.882 0.929,8.675 2.81,10.401L10,17L17.19,10.401C19.07,8.675 19.07,5.881 17.19,4.155Z" style="fill:white;fill-rule:nonzero;stroke:black;stroke-width:0.37px;"/>
            </g>
        </g>
    </g>
</svg>
